HIERARCHY
ROOT Hips
{
	OFFSET 39.417099 3.596817 81.715103
	CHANNELS 6 Xposition Yposition Zposition Xrotation Yrotation Zrotation
	JOINT spine
	{
		OFFSET 0.000000 -0.359108 6.244789
		CHANNELS 3 Xrotation Yrotation Zrotation
		JOINT spine1
		{
			OFFSET 0.000000 -0.000001 9.069412
			CHANNELS 3 Xrotation Yrotation Zrotation
			JOINT spine2
			{
				OFFSET 0.000000 -0.000001 8.690140
				CHANNELS 3 Xrotation Yrotation Zrotation
				JOINT Neck
				{
					OFFSET 0.000000 -1.063724 22.311195
					CHANNELS 3 Xrotation Yrotation Zrotation
					JOINT Head
					{
						OFFSET 0.000000 -0.000001 6.740814
						CHANNELS 3 Xrotation Yrotation Zrotation
						End Site
						{
							OFFSET 0.000000 5.380967 16.316498
						}
					}
				}
				JOINT RightShoulder
				{
					OFFSET -3.659161 0.509512 9.384682
					CHANNELS 3 Xrotation Yrotation Zrotation
					JOINT RightArm
					{
						OFFSET 0.000000 -0.000002 12.308899
						CHANNELS 3 Xrotation Yrotation Zrotation
						JOINT RightArmRoll
						{
							OFFSET 0.000000 -0.000001 6.213745
							CHANNELS 3 Xrotation Yrotation Zrotation
							JOINT RightForeArm
							{
								OFFSET 0.000000 -0.000003 18.098495
								CHANNELS 3 Xrotation Yrotation Zrotation
								JOINT RightForeArmRoll
								{
									OFFSET 0.000000 -0.000001 6.972794
									CHANNELS 3 Xrotation Yrotation Zrotation
									JOINT RightHand
									{
										OFFSET 0.000000 -0.000002 13.992905
										CHANNELS 3 Xrotation Yrotation Zrotation
										End Site
										{
											OFFSET 0.000000 0.000000 0.100006
										}
									}
								}
							}
						}
					}
				}
				JOINT LeftShoulder
				{
					OFFSET 3.659161 0.509512 9.384682
					CHANNELS 3 Xrotation Yrotation Zrotation
					JOINT LeftArm
					{
						OFFSET 0.000000 -0.000002 12.308899
						CHANNELS 3 Xrotation Yrotation Zrotation
						JOINT LeftArmRoll
						{
							OFFSET 0.000000 -0.000001 6.213745
							CHANNELS 3 Xrotation Yrotation Zrotation
							JOINT LeftForeArm
							{
								OFFSET 0.000000 -0.000003 18.098495
								CHANNELS 3 Xrotation Yrotation Zrotation
								JOINT LeftForeArmRoll
								{
									OFFSET 0.000000 -0.000001 6.972794
									CHANNELS 3 Xrotation Yrotation Zrotation
									JOINT LeftHand
									{
										OFFSET 0.000000 -0.000002 13.992905
										CHANNELS 3 Xrotation Yrotation Zrotation
										End Site
										{
											OFFSET 0.000000 0.000000 0.100006
										}
									}
								}
							}
						}
					}
				}
			}
		}
	}
	JOINT RightUpLeg
	{
		OFFSET -5.535149 0.851454 -1.014999
		CHANNELS 3 Xrotation Yrotation Zrotation
		JOINT RightUpLegRoll
		{
			OFFSET 0.000000 -0.000002 16.407501
			CHANNELS 3 Xrotation Yrotation Zrotation
			JOINT RightLeg
			{
				OFFSET 0.000000 0.000003 -20.318100
				CHANNELS 3 Xrotation Yrotation Zrotation
				JOINT RightLegRoll
				{
					OFFSET 0.000000 -0.000003 20.384598
					CHANNELS 3 Xrotation Yrotation Zrotation
					JOINT RightFoot
					{
						OFFSET 0.000000 -0.000003 16.966797
						CHANNELS 3 Xrotation Yrotation Zrotation
						JOINT RightToeBase
						{
							OFFSET 0.000000 -0.000002 14.183395
							CHANNELS 3 Xrotation Yrotation Zrotation
							End Site
							{
								OFFSET 0.006012 0.791745 6.868896
							}
						}
					}
				}
			}
		}
	}
	JOINT LeftUpLeg
	{
		OFFSET 5.535149 0.851454 -1.014999
		CHANNELS 3 Xrotation Yrotation Zrotation
		JOINT LeftUpLegRoll
		{
			OFFSET 0.000000 -0.000002 16.407600
			CHANNELS 3 Xrotation Yrotation Zrotation
			JOINT LeftLeg
			{
				OFFSET 0.000000 -0.000003 20.318100
				CHANNELS 3 Xrotation Yrotation Zrotation
				JOINT LeftLegRoll
				{
					OFFSET 0.000000 -0.000003 20.573097
					CHANNELS 3 Xrotation Yrotation Zrotation
					JOINT LeftFoot
					{
						OFFSET 0.000000 -0.000003 16.778305
						CHANNELS 3 Xrotation Yrotation Zrotation
						JOINT LeftToeBase
						{
							OFFSET 0.000000 -0.000002 14.183395
							CHANNELS 3 Xrotation Yrotation Zrotation
							End Site
							{
								OFFSET -0.026943 0.791745 6.868896
							}
						}
					}
				}
			}
		}
	}
}
MOTION
Frames: 5
Frame Time: 0.041667
35.402599 0.123086 83.205299 3.450251 0.411883 -6.580063 -0.767090 -0.168069 -0.065820 2.468419 -0.324028 -0.145822 4.113516 -0.325745 -0.141612 20.101250 0.211955 6.773040 8.319573 9.700688 5.261011 -5.583738 -63.572443 -6.938618 -33.381860 -109.705003 -27.164164 0.000002 0.000001 0.000010 49.393049 -7.250598 1.542427 -0.000004 0.000002 -3.000001 -5.000363 -7.999112 0.000135 -16.639758 58.820312 19.648347 -24.778743 118.264357 24.052719 0.000000 -0.000005 0.000000 74.298033 1.518678 0.351951 0.000009 -0.000005 3.000001 -4.999742 8.000043 0.000013 -16.170268 -177.510415 -1.197162 -179.999991 0.000005 -0.789996 161.428188 -0.447425 -1.329315 0.000001 -0.000003 0.074725 69.973854 5.670733 5.303936 25.456909 -7.349785 0.000009 -7.965165 168.180854 -3.658117 -0.000005 -0.000003 -0.668844 -16.489909 -0.965983 1.146234 -0.000000 -0.000003 -0.334932 75.222321 -5.625209 -5.528949 25.485833 7.353930 -0.042009 
35.359901 0.112091 83.212097 3.428943 0.419187 -6.528226 -0.762451 -0.167731 -0.067745 2.477650 -0.324201 -0.148751 4.122737 -0.325953 -0.144563 20.033375 0.150714 6.764225 8.325975 9.738602 5.247336 -5.679040 -63.592066 -7.049847 -33.531420 -109.679656 -27.299786 0.000002 0.000003 0.000011 49.411269 -7.244946 1.540849 -0.000003 0.000002 -3.000001 -5.000350 -7.999110 0.000135 -16.688048 58.761442 19.705289 -24.760520 118.357111 24.094624 0.000001 -0.000005 0.000000 74.307192 1.523117 0.353241 0.000010 -0.000005 3.000001 -4.999742 8.000043 0.000012 -16.150298 -177.538022 -1.193779 -179.999991 0.000006 -0.790992 161.396769 -0.458710 -1.331392 0.000001 -0.000004 0.076485 70.003852 5.673841 5.296152 25.456907 -7.349784 0.000009 -7.966711 168.158110 -3.662578 -0.000005 -0.000004 -0.669363 -16.506872 -0.978296 1.144744 0.000001 -0.000003 -0.335914 75.213374 -5.625353 -5.528017 25.485833 7.353931 -0.042009 
35.330299 0.113753 83.216003 3.407136 0.426986 -6.476160 -0.757617 -0.167261 -0.069711 2.487230 -0.324141 -0.151761 4.132317 -0.325930 -0.147598 19.965133 0.086415 6.755276 8.333348 9.778529 5.233353 -5.776252 -63.614155 -7.163488 -33.684919 -109.654036 -27.439863 0.000002 0.000002 0.000012 49.429027 -7.239691 1.539402 -0.000003 0.000002 -3.000001 -5.000354 -7.999110 0.000135 -16.736902 58.699097 19.762872 -24.743264 118.452119 24.138373 0.000001 -0.000005 0.000000 74.316153 1.527526 0.354496 0.000008 -0.000005 3.000000 -4.999742 8.000044 0.000012 -16.129024 -177.566586 -1.189878 -179.999991 0.000005 -0.790992 161.366539 -0.470951 -1.333795 0.000001 -0.000004 0.078182 70.033461 5.676617 5.289029 25.456914 -7.349784 0.000009 -7.967591 168.134327 -3.667581 -0.000005 -0.000003 -0.669846 -16.523937 -0.990596 1.143238 0.000001 -0.000003 -0.336895 75.204597 -5.625402 -5.527261 25.485835 7.353931 -0.042010 
35.282299 0.102410 83.214104 3.384956 0.435121 -6.423926 -0.752648 -0.166699 -0.071704 2.497060 -0.323917 -0.154828 4.142146 -0.325744 -0.150693 19.896700 0.019970 6.746182 8.341398 9.819863 5.219138 -5.874910 -63.638040 -7.278941 -33.845022 -109.626380 -27.587112 0.000002 0.000001 0.000010 49.446526 -7.234680 1.538039 -0.000001 0.000002 -3.000001 -5.000352 -7.999111 0.000134 -16.786155 58.634421 19.820922 -24.725430 118.550145 24.181976 0.000001 -0.000005 0.000000 74.325019 1.531914 0.355710 0.000008 -0.000005 3.000001 -4.999741 8.000044 0.000013 -16.106856 -177.595136 -1.185818 -179.999991 0.000006 -0.791989 161.337100 -0.484135 -1.335513 0.000000 -0.000004 0.079833 70.062516 5.679255 5.282411 25.456909 -7.349784 0.000010 -7.968012 168.109561 -3.672924 -0.000006 -0.000004 -0.670302 -16.541105 -1.002893 1.141714 0.000001 -0.000003 -0.337876 75.195909 -5.625413 -5.526599 25.485835 7.353929 -0.042007 
35.251801 0.102940 83.203697 3.362572 0.443431 -6.371594 -0.747602 -0.166082 -0.073717 2.507030 -0.323600 -0.157929 4.152117 -0.325464 -0.153820 19.828111 -0.047707 6.736930 8.349856 9.861998 5.204796 -5.974505 -63.662930 -7.395532 -34.006286 -109.599053 -27.735721 0.000002 0.000002 0.000010 49.463940 -7.229812 1.536743 -0.000004 0.000002 -3.000001 -5.000355 -7.999111 0.000135 -16.835426 58.568175 19.878967 -24.707979 118.649292 24.226264 0.000001 -0.000005 0.000000 74.333878 1.536280 0.356920 0.000007 -0.000005 3.000000 -4.999742 8.000044 0.000011 -16.084290 -177.623687 -1.181678 -179.999991 0.000005 -0.791990 161.308059 -0.497316 -1.337240 0.000001 -0.000004 0.081459 70.091524 5.681738 5.276061 25.456909 -7.349783 0.000008 -7.968162 168.084795 -3.678532 -0.000005 -0.000002 -0.670743 -16.558271 -1.015199 1.140169 0.000002 -0.000002 -0.338856 75.187132 -5.625421 -5.526135 25.485837 7.353929 -0.042009 
